<svg width="27" height="29" viewBox="0 0 27 29" fill="none" xmlns="http://www.w3.org/2000/svg">
<path d="M5.62407 28.9211C4.74992 28.9211 4.00159 28.6165 3.37908 28.0073C2.75658 27.398 2.44533 26.6656 2.44533 25.81V5.58781C1.99501 5.58781 1.61753 5.43874 1.3129 5.14059C1.00827 4.84244 0.855957 4.47299 0.855957 4.03225C0.855957 3.59151 1.00827 3.22207 1.3129 2.92392C1.61753 2.62577 1.99501 2.4767 2.44533 2.4767H8.80282C8.80282 2.03596 8.95513 1.66651 9.25976 1.36836C9.56439 1.07022 9.94187 0.921143 10.3922 0.921143H16.7497C17.2 0.921143 17.5775 1.07022 17.8821 1.36836C18.1867 1.66651 18.339 2.03596 18.339 2.4767H24.6965C25.1469 2.4767 25.5243 2.62577 25.829 2.92392C26.1336 3.22207 26.2859 3.59151 26.2859 4.03225C26.2859 4.47299 26.1336 4.84244 25.829 5.14059C25.5243 5.43874 25.1469 5.58781 24.6965 5.58781V25.81C24.6965 26.6656 24.3853 27.398 23.7628 28.0073C23.1403 28.6165 22.3919 28.9211 21.5178 28.9211H5.62407ZM21.5178 5.58781H5.62407V25.81H21.5178V5.58781ZM13.5709 17.8767L16.5907 20.8323C16.8821 21.1174 17.253 21.26 17.7033 21.26C18.1536 21.26 18.5245 21.1174 18.8159 20.8323C19.1072 20.5471 19.2529 20.1841 19.2529 19.7434C19.2529 19.3026 19.1072 18.9397 18.8159 18.6545L15.7961 15.6989L18.8159 12.7434C19.1072 12.4582 19.2529 12.0952 19.2529 11.6545C19.2529 11.2137 19.1072 10.8508 18.8159 10.5656C18.5245 10.2804 18.1536 10.1378 17.7033 10.1378C17.253 10.1378 16.8821 10.2804 16.5907 10.5656L13.5709 13.5211L10.5511 10.5656C10.2597 10.2804 9.88889 10.1378 9.43857 10.1378C8.98824 10.1378 8.61739 10.2804 8.326 10.5656C8.03462 10.8508 7.88893 11.2137 7.88893 11.6545C7.88893 12.0952 8.03462 12.4582 8.326 12.7434L11.3458 15.6989L8.326 18.6545C8.03462 18.9397 7.88893 19.3026 7.88893 19.7434C7.88893 20.1841 8.03462 20.5471 8.326 20.8323C8.61739 21.1174 8.98824 21.26 9.43857 21.26C9.88889 21.26 10.2597 21.1174 10.5511 20.8323L13.5709 17.8767Z" fill="white"/>
</svg>
