<svg width="26" height="29" viewBox="0 0 26 29" fill="none" xmlns="http://www.w3.org/2000/svg">
<path d="M2.83273 28.9211C2.13235 28.9211 1.53278 28.6718 1.03402 28.173C0.535267 27.6742 0.285889 27.0747 0.285889 26.3743C0.285889 25.6739 0.535267 25.0743 1.03402 24.5756C1.53278 24.0768 2.13235 23.8275 2.83273 23.8275H23.2075C23.9079 23.8275 24.5074 24.0768 25.0062 24.5756C25.5049 25.0743 25.7543 25.6739 25.7543 26.3743C25.7543 27.0747 25.5049 27.6742 25.0062 28.173C24.5074 28.6718 23.9079 28.9211 23.2075 28.9211H2.83273ZM4.10615 21.2806C3.74535 21.2806 3.44291 21.1586 3.19884 20.9145C2.95477 20.6704 2.83273 20.368 2.83273 20.0072V17.0465C2.83273 16.8767 2.86457 16.7122 2.92824 16.553C2.99191 16.3939 3.08742 16.2506 3.21476 16.1233L14.3572 4.98081L19.1325 9.75614L7.99009 20.8986C7.86275 21.0259 7.71949 21.1214 7.56031 21.1851C7.40113 21.2488 7.23665 21.2806 7.06686 21.2806H4.10615ZM5.37958 18.7338H6.52566L15.5669 9.75614L14.3572 8.54639L5.37958 17.5877V18.7338ZM20.5651 8.35538L15.7898 3.58005L18.082 1.28789C18.3154 1.0332 18.6126 0.911167 18.9734 0.921779C19.3342 0.932391 19.6313 1.05443 19.8647 1.28789L22.8573 4.28043C23.0907 4.51389 23.2075 4.80572 23.2075 5.15591C23.2075 5.5061 23.0907 5.80854 22.8573 6.06322L20.5651 8.35538Z" fill="white"/>
</svg>
